<svg width="25" height="22" viewBox="0 0 25 22" fill="none" xmlns="http://www.w3.org/2000/svg">
<g clip-path="url(#clip0_117_156)">
<path d="M13.4379 6.81055L14.4405 0.850781C14.523 0.360937 14.9526 0 15.4561 0C15.7816 0 16.0855 0.150391 16.2808 0.408203L17.0143 1.375H19.2756C19.8268 1.375 20.3563 1.59414 20.7469 1.98086L21.5282 2.75H23.9587C24.536 2.75 25.0004 3.20977 25.0004 3.78125V4.8125C25.0004 6.71172 23.4466 8.25 21.5282 8.25H18.5204L18.299 9.56055L13.4379 6.81055ZM18.0559 11.0043V20.625C18.0559 21.3855 17.4353 22 16.6671 22H15.2782C14.5099 22 13.8893 21.3855 13.8893 20.625V15.675C12.8476 16.2035 11.6671 16.5 10.4171 16.5C9.16706 16.5 7.9865 16.2035 6.94484 15.675V20.625C6.94484 21.3855 6.32418 22 5.55595 22H4.16706C3.39883 22 2.77817 21.3855 2.77817 20.625V10.7336C1.52817 10.2652 0.547267 9.2168 0.208726 7.87617L0.0437952 7.21016C-0.142837 6.47539 0.308552 5.72773 1.05508 5.54297C1.80161 5.3582 2.55248 5.80508 2.73911 6.54414L2.90838 7.21016C3.06029 7.82031 3.61584 8.25 4.25386 8.25H13.1862L18.0559 11.0043ZM20.1393 3.4375C20.1393 3.25516 20.0661 3.0803 19.9359 2.95136C19.8056 2.82243 19.629 2.75 19.4448 2.75C19.2607 2.75 19.084 2.82243 18.9538 2.95136C18.8236 3.0803 18.7504 3.25516 18.7504 3.4375C18.7504 3.61984 18.8236 3.7947 18.9538 3.92364C19.084 4.05257 19.2607 4.125 19.4448 4.125C19.629 4.125 19.8056 4.05257 19.9359 3.92364C20.0661 3.7947 20.1393 3.61984 20.1393 3.4375Z" fill="#E77E7E"/>
</g>
<defs>
<clipPath id="clip0_117_156">
<rect width="25" height="22" fill="white"/>
</clipPath>
</defs>
</svg>
